<?xml version="1.0" encoding="utf-8"?>
<!-- Generator: Adobe Illustrator 22.1.0, SVG Export Plug-In . SVG Version: 6.00 Build 0)  -->
<svg version="1.1" id="dt_FIZ_Logo__x2B__Claim" width="345px" height="134px" xmlns="http://www.w3.org/2000/svg" xmlns:xlink="http://www.w3.org/1999/xlink"
	 x="0px" y="0px" viewBox="0 0 381.3 161.7" style="enable-background:new 0 0 381.3 161.7;" xml:space="preserve">
<style type="text/css">
	.st0{fill:#434343;}
	.st1{fill:#A52256;}
</style>
<g>
	<polygon class="st0" points="60.7,31.1 60.1,35.7 51.1,35.7 51.1,42.1 58.3,42.1 58.3,46.8 51.1,46.8 51.1,59.4 45.4,59.4 
		45.4,31.1 60.7,31.1 	"/>
	<polygon class="st0" points="70.5,31.1 70.5,59.4 64.6,59.4 64.6,31.1 70.5,31.1 	"/>
	<path class="st0" d="M94.1,31.1v4.1L83.6,52.9c-0.6,1-1.5,2-1.5,2s1.7-0.2,2.8-0.2h9.5L93,59.4H75.3v-4l10.4-17.2
		c0.8-1.3,1.8-2.6,1.8-2.6s-1.2,0.2-2.9,0.2h-8.7l1.3-4.7H94.1L94.1,31.1z"/>
	<path class="st0" d="M119.1,31.4h4.3l-11.2,13.1l11.2,14.8h-4.3l-10.7-14.8L119.1,31.4L119.1,31.4z M104.8,31.4h3.4v27.9h-3.4V31.4
		L104.8,31.4z"/>
	<path class="st0" d="M137.4,49.1c-0.5,0-1-0.1-1.6-0.1c-5.1,0-7,1.8-7,4.8c0,2.4,1.2,3.7,3.5,3.7c2.1,0,4-1.3,4.9-3.2L137.4,49.1
		L137.4,49.1z M126.1,41.3c2.7-1.8,5.6-2.7,8.5-2.7c2.8,0,4.8,1.1,5.6,3.2c0.4,1.1,0.5,2.6,0.4,4.5l-0.2,6.7c-0.1,3.3,0.1,4.2,1.6,5
		l-1.6,2.3c-1.4-0.4-2.4-1.5-2.8-3c-2,2-3.5,2.7-5.9,2.7c-5,0-6.5-3.1-6.5-5.8c0-4.6,4-7.3,10.8-7.3c0.9,0,1.4,0,1.4,0v-1.4
		c0-1.8-0.1-2.5-0.7-3.2c-0.7-0.7-1.5-1.1-2.7-1.1c-2.3,0-5.2,1.2-6.5,2.4L126.1,41.3L126.1,41.3z"/>
	<path class="st0" d="M146.7,39.4l3.2-0.9c0,0,0.8,1.6,0.7,3.3c1.5-2.1,3.6-3.4,5.7-3.4c0.5,0,1.1,0.2,1.1,0.2l-1.3,3.5
		c-0.2-0.1-0.6-0.2-0.9-0.2c-1.2,0-2.4,0.5-3.4,1.5c-0.9,0.9-1.2,1.5-1.2,3.2v12.7h-3.2V43.7C147.4,40.8,146.7,39.4,146.7,39.4
		L146.7,39.4z"/>
	<path class="st0" d="M164.3,55.3c0,1.6,0.2,2,1.1,2c0.1,0,0.4-0.1,0.4-0.1l0.7,2.1c-0.8,0.4-1.2,0.4-2,0.4c-1,0-1.8-0.3-2.4-0.9
		c-0.7-0.6-1-1.4-1-2.9V34.5c0-2.6-0.5-4.2-0.5-4.2l3.2-0.6c0,0,0.5,1.7,0.5,4.8V55.3L164.3,55.3z"/>
	<path class="st0" d="M183.4,39.9l-1.2,2.4c-1.8-0.9-3.3-1.5-5.1-1.5c-2.3,0-3.8,1.3-3.8,3.3c0,1.5,0.8,2.5,2.9,2.9l2.7,0.6
		c3.7,0.8,5.4,2.6,5.4,5.7c0,4-3.1,6.6-7.7,6.6c-2.6,0-5.4-0.8-7.5-2l1.2-2.4c2.1,1.3,4.2,1.9,6.4,1.9c2.5,0,4.1-1.3,4.1-3.5
		c0-1.8-1-2.9-3.3-3.3l-2.5-0.5c-3.3-0.7-5.1-2.8-5.1-5.6c0-3.7,3-6.2,7.2-6.2C179.4,38.3,181.7,39,183.4,39.9L183.4,39.9z"/>
	<path class="st0" d="M188.9,39.4l3.2-0.9c0,0,0.8,1.6,0.7,3.3c1.5-2.1,3.6-3.4,5.7-3.4c0.5,0,1.1,0.2,1.1,0.2l-1.3,3.5
		c-0.2-0.1-0.6-0.2-0.9-0.2c-1.2,0-2.4,0.5-3.4,1.5c-0.9,0.9-1.2,1.5-1.2,3.2v12.7h-3.2V43.7C189.6,40.8,188.9,39.4,188.9,39.4
		L188.9,39.4z"/>
	<path class="st0" d="M203.1,39.3l3.1-0.6v14.6c0,1.9,0.3,2.8,1.2,3.4c0.7,0.4,1.6,0.7,2.5,0.7c2,0,4.1-1.5,5.2-3.7V39.3l3.1-0.5
		v14.8c0,2.6,0.4,3.6,1.4,4.5l-2,2.2c-1.3-1.1-1.9-1.9-2.2-3.3c-1.5,2.1-3.7,3.1-6.4,3.1c-2.6,0-4.5-1.1-5.3-2.9
		c-0.4-0.8-0.5-1.8-0.5-3V39.3L203.1,39.3z"/>
	<path class="st0" d="M225,30.2l3.2-0.6c0,0,0.5,1.7,0.5,4.8v4.7c0,1.3-0.1,2.8-0.1,2.8c1.8-1.7,4.2-3.2,6.8-3.2
		c2.4,0,4.6,1.3,5.2,3.2c0.2,0.8,0.3,1.5,0.3,2.9v14.5h-3.1v-14c0-1.5-0.2-2.4-0.8-3c-0.5-0.5-1.3-0.8-2.4-0.8c-2,0-4.2,1.3-5.9,3.4
		v14.4h-3.2v-25C225.5,31.7,225,30.2,225,30.2L225,30.2z"/>
	<path class="st0" d="M249.7,47.4h9.3c0-2.2-0.3-3.5-0.9-4.5c-0.7-1.1-2.1-1.8-3.7-1.8C251.5,41,249.8,43.2,249.7,47.4L249.7,47.4z
		 M260.6,55.3l1.2,2c-1.8,1.6-4.2,2.5-6.8,2.5c-5.6,0-9-4.1-9-10.8c0-3.4,0.7-5.6,2.4-7.7c1.6-1.9,3.6-2.8,6.1-2.8
		c2.2,0,4.1,0.8,5.5,2.2c1.8,1.8,2.2,3.7,2.3,8.6v0.4h-12.7v0.5c0,1.9,0.2,3.4,0.9,4.4c1.1,1.8,3,2.5,5,2.5
		C257.6,57.2,259.2,56.6,260.6,55.3L260.6,55.3z"/>
	<polygon class="st0" points="45.4,75.6 46.9,75.6 46.9,86.5 51.7,86.5 51.5,87.7 45.4,87.7 45.4,75.6 	"/>
	<path class="st0" d="M53.9,82.5h4c0-1-0.1-1.5-0.4-2c-0.3-0.5-0.9-0.8-1.6-0.8C54.7,79.8,53.9,80.7,53.9,82.5L53.9,82.5z M58.6,86
		l0.5,0.9c-0.8,0.7-1.8,1.1-3,1.1c-2.4,0-3.9-1.8-3.9-4.7c0-1.5,0.3-2.4,1.1-3.3c0.7-0.8,1.6-1.2,2.6-1.2c1,0,1.8,0.3,2.4,1
		c0.8,0.8,1,1.6,1,3.7v0.2h-5.5v0.2c0,0.8,0.1,1.5,0.4,1.9c0.5,0.8,1.3,1.1,2.2,1.1C57.3,86.8,58,86.5,58.6,86L58.6,86z"/>
	<path class="st0" d="M61.9,78.9l1.4-0.2v9h-1.4V78.9L61.9,78.9z M62.6,75.1c0.6,0,1.1,0.5,1.1,1.1c0,0.6-0.5,1.1-1.1,1.1
		c-0.6,0-1.1-0.5-1.1-1.1C61.5,75.6,62,75.1,62.6,75.1L62.6,75.1z"/>
	<path class="st0" d="M67.7,85.7c0.5,0.6,1.3,1.1,2.2,1.1c0.6,0,1.3-0.3,1.6-0.8c0.3-0.5,0.6-1.3,0.6-2.8c0-1.2-0.1-1.9-0.5-2.4
		c-0.3-0.5-1-0.8-1.7-0.8c-0.9,0-1.7,0.5-2.2,1.2V85.7L67.7,85.7z M66.1,75l1.4-0.3c0,0,0.2,0.7,0.2,2.1v2.1c0,0.4,0,1,0,1
		c0.9-0.9,1.6-1.2,2.5-1.2c2.1,0,3.4,1.7,3.4,4.5c0,2.8-1.4,4.8-3.5,4.8c-0.9,0-1.9-0.5-2.4-1.2c0,0.4-0.1,0.6-0.2,1H66
		c0.2-0.4,0.3-1,0.3-2.2v-8.7C66.3,75.7,66.1,75,66.1,75L66.1,75z"/>
	<path class="st0" d="M75.6,79.1l1.3-0.4c0,0,0.3,0.7,0.3,1.4c0.9-0.9,1.8-1.4,2.8-1.4c1,0,1.8,0.5,2.2,1.3c0.1,0.3,0.2,0.7,0.2,1
		v6.7h-1.4v-6c0-0.9-0.1-1.2-0.3-1.5c-0.2-0.2-0.6-0.4-1-0.4c-0.7,0-1.8,0.6-2.4,1.2v6.6H76v-6.8C76,79.7,75.6,79.1,75.6,79.1
		L75.6,79.1z"/>
	<path class="st0" d="M85.4,78.9l1.4-0.2v9h-1.4V78.9L85.4,78.9z M86.1,75.1c0.6,0,1.1,0.5,1.1,1.1c0,0.6-0.5,1.1-1.1,1.1
		c-0.6,0-1.1-0.5-1.1-1.1C85,75.6,85.5,75.1,86.1,75.1L86.1,75.1z"/>
	<polygon class="st0" points="89.2,78.9 95.1,78.9 95.1,80 90.5,86.7 95.4,86.7 94.7,87.7 88.8,87.7 88.8,86.7 93.7,80 89.2,80 
		89.2,78.9 	"/>
	<polygon class="st0" points="96.9,82.3 100.3,82.3 100.3,83.7 96.9,83.7 96.9,82.3 	"/>
	<polygon class="st0" points="102.9,75.6 104.3,75.6 104.3,87.7 102.9,87.7 102.9,75.6 	"/>
	<path class="st0" d="M107.1,79.1l1.3-0.4c0,0,0.3,0.7,0.3,1.4c0.9-0.9,1.8-1.4,2.8-1.4c1,0,1.8,0.5,2.2,1.3c0.1,0.3,0.2,0.7,0.2,1
		v6.7h-1.4v-6c0-0.9-0.1-1.2-0.3-1.5c-0.2-0.2-0.6-0.4-1-0.4c-0.7,0-1.8,0.6-2.4,1.2v6.6h-1.3v-6.8
		C107.4,79.7,107.1,79.1,107.1,79.1L107.1,79.1z"/>
	<path class="st0" d="M122.2,79.3l-0.5,1c-0.8-0.4-1.4-0.6-2.2-0.6c-1,0-1.7,0.6-1.7,1.5c0,0.7,0.3,1.1,1.3,1.3l1.2,0.2
		c1.6,0.3,2.4,1.2,2.4,2.5c0,1.7-1.3,2.9-3.3,2.9c-1.1,0-2.3-0.3-3.2-0.9l0.5-1c0.9,0.6,1.8,0.8,2.8,0.8c1.1,0,1.8-0.6,1.8-1.5
		c0-0.8-0.4-1.2-1.5-1.5l-1.1-0.2c-1.5-0.3-2.2-1.2-2.2-2.4c0-1.6,1.3-2.7,3.1-2.7C120.4,78.6,121.4,78.9,122.2,79.3L122.2,79.3z"/>
	<path class="st0" d="M128.6,78.9l-0.4,1h-1.8v5.7c0,1,0.3,1.3,1.1,1.3c0.4,0,0.6-0.1,0.9-0.2l0.2,0.9c-0.4,0.2-0.9,0.4-1.6,0.4
		c-0.5,0-0.8-0.1-1.2-0.2c-0.6-0.3-0.9-0.9-0.9-1.8V80h-1.2v-1h1.2c0-0.9,0.1-2.2,0.1-2.2l1.5-0.3c0,0-0.2,1.4-0.2,2.6H128.6
		L128.6,78.9z"/>
	<path class="st0" d="M130.6,78.9l1.4-0.2v9h-1.4V78.9L130.6,78.9z M131.3,75.1c0.6,0,1.1,0.5,1.1,1.1c0,0.6-0.5,1.1-1.1,1.1
		c-0.6,0-1.1-0.5-1.1-1.1C130.2,75.6,130.7,75.1,131.3,75.1L131.3,75.1z"/>
	<path class="st0" d="M138.8,78.9l-0.4,1h-1.8v5.7c0,1,0.3,1.3,1.1,1.3c0.4,0,0.6-0.1,0.9-0.2l0.2,0.9c-0.4,0.2-0.9,0.4-1.6,0.4
		c-0.5,0-0.8-0.1-1.2-0.2c-0.6-0.3-0.9-0.9-0.9-1.8V80H134v-1h1.2c0-0.9,0.1-2.2,0.1-2.2l1.5-0.3c0,0-0.2,1.4-0.2,2.6H138.8
		L138.8,78.9z"/>
	<path class="st0" d="M140.7,79l1.4-0.3v6.4c0,0.8,0.1,1.2,0.5,1.5c0.3,0.2,0.7,0.3,1.1,0.3c0.9,0,1.8-0.6,2.3-1.6V79l1.4-0.2v6.4
		c0,1.1,0.2,1.6,0.6,2l-0.9,0.9c-0.6-0.5-0.8-0.8-1-1.4c-0.7,0.9-1.6,1.3-2.8,1.3c-1.1,0-2-0.5-2.3-1.3c-0.2-0.3-0.2-0.8-0.2-1.3V79
		L140.7,79z"/>
	<path class="st0" d="M154.2,78.9l-0.4,1h-1.8v5.7c0,1,0.3,1.3,1.1,1.3c0.4,0,0.6-0.1,0.9-0.2l0.2,0.9c-0.4,0.2-0.9,0.4-1.6,0.4
		c-0.5,0-0.8-0.1-1.2-0.2c-0.6-0.3-0.9-0.9-0.9-1.8V80h-1.2v-1h1.2c0-0.9,0.1-2.2,0.1-2.2l1.5-0.3c0,0-0.2,1.4-0.2,2.6H154.2
		L154.2,78.9z"/>
	<path class="st0" d="M164.2,76.4c-0.3-0.2-0.8-0.4-1.3-0.4c-0.8,0-1.2,0.5-1.2,1.6v1.4h2.4l-0.4,1h-2v7.8h-1.5V80h-0.9v-1h0.9v-1.4
		c0-1.3,0.6-1.9,1-2.2c0.4-0.3,0.9-0.5,1.6-0.5c0.8,0,1.4,0.2,1.9,0.5L164.2,76.4L164.2,76.4z"/>
	<path class="st0" d="M170.4,75.8c0.5,0,0.9,0.4,0.9,0.9c0,0.5-0.4,0.9-0.9,0.9c-0.5,0-0.9-0.4-0.9-0.9
		C169.5,76.2,169.9,75.8,170.4,75.8L170.4,75.8z M166.7,75.8c0.5,0,0.9,0.4,0.9,0.9c0,0.5-0.4,0.9-0.9,0.9c-0.5,0-0.9-0.4-0.9-0.9
		C165.8,76.2,166.2,75.8,166.7,75.8L166.7,75.8z M165.3,79l1.4-0.3v6.4c0,0.8,0.1,1.2,0.5,1.5c0.3,0.2,0.7,0.3,1.1,0.3
		c0.9,0,1.8-0.6,2.3-1.6V79l1.4-0.2v6.4c0,1.1,0.2,1.6,0.6,2l-0.9,0.9c-0.6-0.5-0.8-0.8-1-1.4c-0.7,0.9-1.6,1.3-2.8,1.3
		c-1.1,0-2-0.5-2.3-1.3c-0.2-0.3-0.2-0.8-0.2-1.3V79L165.3,79z"/>
	<path class="st0" d="M174.7,79.1l1.4-0.4c0,0,0.3,0.7,0.3,1.4c0.6-0.9,1.6-1.5,2.5-1.5c0.2,0,0.5,0.1,0.5,0.1l-0.6,1.5
		c-0.1,0-0.2-0.1-0.4-0.1c-0.5,0-1.1,0.2-1.5,0.6c-0.4,0.4-0.5,0.7-0.5,1.4v5.5H175v-6.8C175,79.6,174.7,79.1,174.7,79.1L174.7,79.1
		z"/>
	<polygon class="st0" points="185.1,75.6 186.5,75.6 186.5,87.7 185.1,87.7 185.1,75.6 	"/>
	<path class="st0" d="M189.3,79.1l1.3-0.4c0,0,0.3,0.7,0.3,1.4c0.9-0.9,1.8-1.4,2.8-1.4c1,0,1.8,0.5,2.2,1.3c0.1,0.3,0.2,0.7,0.2,1
		v6.7h-1.4v-6c0-0.9-0.1-1.2-0.3-1.5c-0.2-0.2-0.6-0.4-1-0.4c-0.7,0-1.8,0.6-2.4,1.2v6.6h-1.3v-6.8
		C189.6,79.7,189.3,79.1,189.3,79.1L189.3,79.1z"/>
	<path class="st0" d="M203.1,76.4c-0.3-0.2-0.8-0.4-1.3-0.4c-0.8,0-1.2,0.5-1.2,1.6v1.4h2.4l-0.4,1h-2v7.8h-1.5V80h-0.9v-1h0.9v-1.4
		c0-1.3,0.6-1.9,1-2.2c0.4-0.3,0.9-0.5,1.6-0.5c0.8,0,1.4,0.2,2,0.5L203.1,76.4L203.1,76.4z"/>
	<path class="st0" d="M207.4,79.8c-0.8,0-1.5,0.4-1.8,1c-0.3,0.5-0.4,1.3-0.4,2.3c0,1.2,0.2,2.3,0.5,2.9c0.3,0.5,1,0.9,1.8,0.9
		c0.9,0,1.6-0.5,1.9-1.3c0.2-0.5,0.3-1,0.3-1.9c0-1.2-0.1-2.1-0.4-2.7C208.9,80.1,208.1,79.8,207.4,79.8L207.4,79.8z M207.4,78.6
		c1.5,0,2.4,0.7,3,1.5c0.6,0.8,0.8,1.8,0.8,3.3c0,2.9-1.6,4.5-3.8,4.5c-2.4,0-3.8-1.8-3.8-4.7C203.6,80.4,205.1,78.6,207.4,78.6
		L207.4,78.6z"/>
	<path class="st0" d="M213.5,79.1l1.4-0.4c0,0,0.3,0.7,0.3,1.4c0.6-0.9,1.6-1.5,2.5-1.5c0.2,0,0.5,0.1,0.5,0.1l-0.6,1.5
		c-0.1,0-0.2-0.1-0.4-0.1c-0.5,0-1.1,0.2-1.5,0.6c-0.4,0.4-0.5,0.7-0.5,1.4v5.5h-1.4v-6.8C213.8,79.6,213.5,79.1,213.5,79.1
		L213.5,79.1z"/>
	<path class="st0" d="M219.4,79l1.3-0.3c0,0,0.3,0.7,0.3,1.3c0.6-0.7,1.7-1.3,2.6-1.3c0.9,0,1.7,0.5,2.1,1.5
		c0.9-0.9,1.9-1.5,2.8-1.5c1.3,0,2.2,1,2.2,2.4v6.7h-1.4v-6.5c0-0.9-0.4-1.3-1.1-1.3c-0.8,0-1.4,0.5-2.3,1.4v6.5h-1.4v-6.3
		c0-0.5-0.1-0.9-0.2-1.1c-0.2-0.2-0.5-0.4-0.9-0.4c-0.7,0-1.3,0.3-2.3,1.2v6.6h-1.3v-6.8C219.7,79.6,219.4,79,219.4,79L219.4,79z"/>
	<path class="st0" d="M238.3,83.3c-0.2,0-0.4,0-0.7,0c-2.2,0-3,0.8-3,2.1c0,1,0.5,1.6,1.5,1.6c0.9,0,1.7-0.5,2.1-1.4L238.3,83.3
		L238.3,83.3z M233.3,79.9c1.2-0.8,2.4-1.2,3.7-1.2c1.2,0,2.1,0.5,2.4,1.4c0.2,0.5,0.2,1.2,0.2,2l-0.1,2.9c0,1.4,0.1,1.8,0.7,2.2
		l-0.7,1c-0.6-0.2-1-0.7-1.2-1.3c-0.9,0.9-1.5,1.2-2.6,1.2c-2.2,0-2.8-1.3-2.8-2.5c0-2,1.7-3.2,4.7-3.2c0.4,0,0.6,0,0.6,0v-0.6
		c0-0.8,0-1.1-0.3-1.4c-0.3-0.3-0.6-0.5-1.2-0.5c-1,0-2.3,0.5-2.8,1L233.3,79.9L233.3,79.9z"/>
	<path class="st0" d="M246.4,78.9l-0.4,1h-1.8v5.7c0,1,0.3,1.3,1.1,1.3c0.4,0,0.6-0.1,0.9-0.2l0.2,0.9c-0.4,0.2-0.9,0.4-1.6,0.4
		c-0.5,0-0.8-0.1-1.2-0.2c-0.6-0.3-0.9-0.9-0.9-1.8V80h-1.2v-1h1.2c0-0.9,0.1-2.2,0.1-2.2l1.5-0.3c0,0-0.2,1.4-0.2,2.6H246.4
		L246.4,78.9z"/>
	<path class="st0" d="M248.3,78.9l1.4-0.2v9h-1.4V78.9L248.3,78.9z M249.1,75.1c0.6,0,1.1,0.5,1.1,1.1c0,0.6-0.5,1.1-1.1,1.1
		c-0.6,0-1.1-0.5-1.1-1.1C248,75.6,248.5,75.1,249.1,75.1L249.1,75.1z"/>
	<path class="st0" d="M255.9,79.8c-0.8,0-1.5,0.4-1.8,1c-0.3,0.5-0.4,1.3-0.4,2.3c0,1.2,0.2,2.3,0.5,2.9c0.3,0.5,1,0.9,1.8,0.9
		c0.9,0,1.6-0.5,1.9-1.3c0.2-0.5,0.3-1,0.3-1.9c0-1.2-0.1-2.1-0.4-2.7C257.4,80.1,256.6,79.8,255.9,79.8L255.9,79.8z M255.9,78.6
		c1.5,0,2.4,0.7,3,1.5c0.5,0.8,0.8,1.8,0.8,3.3c0,2.9-1.6,4.5-3.8,4.5c-2.4,0-3.8-1.8-3.8-4.7C252.2,80.4,253.6,78.6,255.9,78.6
		L255.9,78.6z"/>
	<path class="st0" d="M262,79.1l1.3-0.4c0,0,0.3,0.7,0.3,1.4c0.9-0.9,1.8-1.4,2.8-1.4c1,0,1.8,0.5,2.2,1.3c0.1,0.3,0.2,0.7,0.2,1
		v6.7h-1.4v-6c0-0.9-0.1-1.2-0.3-1.5c-0.2-0.2-0.6-0.4-1-0.4c-0.7,0-1.8,0.6-2.4,1.2v6.6h-1.3v-6.8C262.3,79.7,262,79.1,262,79.1
		L262,79.1z"/>
	<path class="st0" d="M277,79.3l-0.5,1c-0.8-0.4-1.4-0.6-2.2-0.6c-1,0-1.7,0.6-1.7,1.5c0,0.7,0.3,1.1,1.3,1.3l1.2,0.2
		c1.6,0.3,2.4,1.2,2.4,2.5c0,1.7-1.3,2.9-3.3,2.9c-1.1,0-2.3-0.3-3.2-0.9l0.5-1c0.9,0.6,1.8,0.8,2.8,0.8c1.1,0,1.8-0.6,1.8-1.5
		c0-0.8-0.4-1.2-1.5-1.5l-1.1-0.2c-1.5-0.3-2.2-1.2-2.2-2.4c0-1.6,1.3-2.7,3.1-2.7C275.3,78.6,276.3,78.9,277,79.3L277,79.3z"/>
	<path class="st0" d="M279.7,78.9l1.4-0.2v9h-1.4V78.9L279.7,78.9z M280.5,75.1c0.6,0,1.1,0.5,1.1,1.1c0,0.6-0.5,1.1-1.1,1.1
		c-0.6,0-1.1-0.5-1.1-1.1C279.4,75.6,279.9,75.1,280.5,75.1L280.5,75.1z"/>
	<path class="st0" d="M283.8,79.1l1.3-0.4c0,0,0.3,0.7,0.3,1.4c0.9-0.9,1.8-1.4,2.8-1.4c1,0,1.8,0.5,2.2,1.3c0.1,0.3,0.2,0.7,0.2,1
		v6.7h-1.4v-6c0-0.9-0.1-1.2-0.3-1.5c-0.2-0.2-0.6-0.4-1-0.4c-0.7,0-1.8,0.6-2.4,1.2v6.6h-1.3v-6.8
		C284.2,79.7,283.8,79.1,283.8,79.1L283.8,79.1z"/>
	<path class="st0" d="M297.6,76.4c-0.3-0.2-0.8-0.4-1.3-0.4c-0.8,0-1.2,0.5-1.2,1.6v1.4h2.4l-0.4,1h-2v7.8h-1.5V80h-0.9v-1h0.9v-1.4
		c0-1.3,0.6-1.9,1-2.2c0.4-0.3,0.9-0.5,1.6-0.5c0.8,0,1.4,0.2,1.9,0.5L297.6,76.4L297.6,76.4z"/>
	<path class="st0" d="M298.5,79.1l1.4-0.4c0,0,0.3,0.7,0.3,1.4c0.6-0.9,1.6-1.5,2.5-1.5c0.2,0,0.5,0.1,0.5,0.1l-0.6,1.5
		c-0.1,0-0.2-0.1-0.4-0.1c-0.5,0-1.1,0.2-1.5,0.6c-0.4,0.4-0.5,0.7-0.5,1.4v5.5h-1.4v-6.8C298.8,79.6,298.5,79.1,298.5,79.1
		L298.5,79.1z"/>
	<path class="st0" d="M309.1,83.3c-0.2,0-0.4,0-0.7,0c-2.2,0-3,0.8-3,2.1c0,1,0.5,1.6,1.5,1.6c0.9,0,1.7-0.5,2.1-1.4L309.1,83.3
		L309.1,83.3z M304.2,79.9c1.2-0.8,2.4-1.2,3.7-1.2c1.2,0,2.1,0.5,2.4,1.4c0.2,0.5,0.2,1.2,0.2,2l-0.1,2.9c0,1.4,0.1,1.8,0.7,2.2
		l-0.7,1c-0.6-0.2-1-0.7-1.2-1.3c-0.9,0.9-1.5,1.2-2.6,1.2c-2.2,0-2.8-1.3-2.8-2.5c0-2,1.7-3.2,4.7-3.2c0.4,0,0.6,0,0.6,0v-0.6
		c0-0.8,0-1.1-0.3-1.4c-0.3-0.3-0.6-0.5-1.2-0.5c-1,0-2.3,0.5-2.8,1L304.2,79.9L304.2,79.9z"/>
	<path class="st0" d="M318.8,79.3l-0.5,1c-0.8-0.4-1.4-0.6-2.2-0.6c-1,0-1.7,0.6-1.7,1.5c0,0.7,0.3,1.1,1.3,1.3l1.2,0.2
		c1.6,0.3,2.4,1.2,2.4,2.5c0,1.7-1.3,2.9-3.3,2.9c-1.1,0-2.3-0.3-3.2-0.9l0.5-1c0.9,0.6,1.8,0.8,2.8,0.8c1.1,0,1.8-0.6,1.8-1.5
		c0-0.8-0.4-1.2-1.5-1.5l-1.1-0.2c-1.5-0.3-2.2-1.2-2.2-2.4c0-1.6,1.3-2.7,3.1-2.7C317.1,78.6,318.1,78.9,318.8,79.3L318.8,79.3z"/>
	<path class="st0" d="M325.3,78.9l-0.4,1H323v5.7c0,1,0.3,1.3,1.1,1.3c0.4,0,0.6-0.1,0.9-0.2l0.2,0.9c-0.4,0.2-0.9,0.4-1.6,0.4
		c-0.5,0-0.8-0.1-1.2-0.2c-0.6-0.3-0.9-0.9-0.9-1.8V80h-1.2v-1h1.2c0-0.9,0.1-2.2,0.1-2.2l1.5-0.3c0,0-0.2,1.4-0.2,2.6H325.3
		L325.3,78.9z"/>
	<path class="st0" d="M327,79.1l1.4-0.4c0,0,0.3,0.7,0.3,1.4c0.6-0.9,1.6-1.5,2.5-1.5c0.2,0,0.5,0.1,0.5,0.1l-0.6,1.5
		c-0.1,0-0.2-0.1-0.4-0.1c-0.5,0-1.1,0.2-1.5,0.6c-0.4,0.4-0.5,0.7-0.5,1.4v5.5h-1.4v-6.8C327.3,79.6,327,79.1,327,79.1L327,79.1z"
		/>
	<path class="st0" d="M333.1,79l1.4-0.3v6.4c0,0.8,0.1,1.2,0.5,1.5c0.3,0.2,0.7,0.3,1.1,0.3c0.9,0,1.8-0.6,2.3-1.6V79l1.4-0.2v6.4
		c0,1.1,0.2,1.6,0.6,2l-0.9,0.9c-0.6-0.5-0.8-0.8-1-1.4c-0.7,0.9-1.6,1.3-2.8,1.3c-1.1,0-2-0.5-2.3-1.3c-0.2-0.3-0.2-0.8-0.2-1.3V79
		L333.1,79z"/>
	<path class="st0" d="M347.7,78.9h1.7l-3.5,3.8l4.3,5h-1.8l-4.1-5L347.7,78.9L347.7,78.9z M342.6,75l1.4-0.3c0,0,0.2,0.7,0.2,2.1
		v10.9h-1.4V76.9C342.9,75.7,342.6,75,342.6,75L342.6,75z"/>
	<path class="st0" d="M355.4,78.9l-0.4,1h-1.8v5.7c0,1,0.3,1.3,1.1,1.3c0.4,0,0.6-0.1,0.9-0.2l0.2,0.9c-0.4,0.2-0.9,0.4-1.6,0.4
		c-0.5,0-0.8-0.1-1.2-0.2c-0.6-0.3-0.9-0.9-0.9-1.8V80h-1.2v-1h1.2c0-0.9,0.1-2.2,0.1-2.2l1.5-0.3c0,0-0.2,1.4-0.2,2.6H355.4
		L355.4,78.9z"/>
	<path class="st0" d="M357.3,79l1.4-0.3v6.4c0,0.8,0.1,1.2,0.5,1.5c0.3,0.2,0.7,0.3,1.1,0.3c0.9,0,1.8-0.6,2.3-1.6V79l1.4-0.2v6.4
		c0,1.1,0.2,1.6,0.6,2l-0.9,0.9c-0.6-0.5-0.8-0.8-1-1.4c-0.7,0.9-1.6,1.3-2.8,1.3c-1.1,0-2-0.5-2.3-1.3c-0.2-0.3-0.2-0.8-0.2-1.3V79
		L357.3,79z"/>
	<path class="st0" d="M366.8,79.1l1.4-0.4c0,0,0.3,0.7,0.3,1.4c0.6-0.9,1.6-1.5,2.5-1.5c0.2,0,0.5,0.1,0.5,0.1l-0.6,1.5
		c-0.1,0-0.2-0.1-0.4-0.1c-0.5,0-1.1,0.2-1.5,0.6c-0.4,0.4-0.5,0.7-0.5,1.4v5.5h-1.4v-6.8C367.1,79.6,366.8,79.1,366.8,79.1
		L366.8,79.1z"/>
	<path class="st0" d="M20.4,39.8l-3.9,9.1C3.9,43.5-1.9,29,3.4,16.4C8.8,3.8,23.3-2.1,35.9,3.3L32,12.4c-7.6-3.2-16.3,0.3-19.5,7.9
		C9.3,27.8,12.9,36.6,20.4,39.8"/>
	<path class="st1" d="M26.2,31c2.7,0,5-2.2,5-5c0-2.7-2.2-5-5-5c-2.7,0-5,2.2-5,5C21.3,28.8,23.5,31,26.2,31"/>
	<path class="st1" d="M52.1,152.9c0,0-0.5-1.5-0.8-2.8c-0.1-0.6-0.6-2.5-0.6-2.5s-0.4,1.7-0.7,2.7c-0.3,1-0.4,1.7-0.8,2.6H52.1
		L52.1,152.9z M52.4,144.4l4.4,14.1h-3l-1-3.3h-4.1l-1,3.3h-3l4.6-14.1H52.4L52.4,144.4z"/>
	<path class="st1" d="M63.3,156.3h1.5c1.9,0,2.7-1.4,2.7-4.4c0-1.6-0.1-3-0.7-4c-0.5-0.8-1.1-1.2-2.2-1.2h-1.3V156.3L63.3,156.3z
		 M63.2,144.5c0.8,0,1.9,0,2.5,0.1c1.2,0.1,2.2,0.5,3.1,1.4c1.3,1.3,1.9,3.1,1.9,5.6c0,1.9-0.5,3.6-1.4,4.9c-0.9,1.2-2.1,1.9-3.4,2
		c-0.5,0-1.2,0.1-2,0.1h-3.4v-14.1H63.2L63.2,144.5z"/>
	<path class="st1" d="M76.5,144.5l2.3,7.4c0.2,0.6,0.4,1.4,0.6,2.5c0.2-0.9,0.5-2.1,0.8-2.8l2.4-7h3l-4.9,14.2h-2.6l-4.8-14.2H76.5
		L76.5,144.5z"/>
	<path class="st1" d="M94.5,152.9c0,0-0.5-1.5-0.8-2.8c-0.1-0.6-0.6-2.5-0.6-2.5s-0.4,1.7-0.7,2.7c-0.3,1-0.4,1.7-0.8,2.6H94.5
		L94.5,152.9z M94.8,144.4l4.4,14.1h-3l-1-3.3H91l-1,3.3h-3l4.6-14.1H94.8L94.8,144.4z"/>
	<path class="st1" d="M105.9,144.5l2.7,5.6c0.7,1.5,1.3,3,1.5,4c-0.1-1.1-0.2-2.9-0.2-3.9l-0.1-5.8h2.7v14.1h-3l-2.4-5.4
		c-0.8-1.8-1.6-3.8-1.9-4.6c0.1,1.2,0.1,2.8,0.1,4l0.1,6h-2.7v-14.1H105.9L105.9,144.5z"/>
	<path class="st1" d="M125.7,147.2c-0.7-0.5-1.5-0.8-2.3-0.8c-1,0-1.9,0.5-2.4,1.2c-0.5,0.8-0.8,2-0.8,3.6c0,1.9,0.2,3,0.6,3.8
		c0.6,1,1.5,1.6,2.7,1.6c0.8,0,1.6-0.2,2.4-0.9l1.3,1.8c-1.1,0.9-2.3,1.3-3.9,1.3c-1.9,0-3.5-0.6-4.6-1.9c-1.1-1.3-1.7-3-1.7-5.1
		c0-1.8,0.3-3.2,1-4.4c1.1-2,3.1-3.3,5.4-3.3c1.4,0,2.8,0.4,3.6,1.1L125.7,147.2L125.7,147.2z"/>
	<polygon class="st1" points="134.1,144.5 134.1,158.6 131.1,158.6 131.1,144.5 134.1,144.5 	"/>
	<path class="st1" d="M142.7,144.5l2.7,5.6c0.7,1.5,1.3,3,1.5,4c-0.1-1.1-0.2-2.9-0.2-3.9l-0.1-5.8h2.7v14.1h-3l-2.4-5.4
		c-0.8-1.8-1.6-3.8-1.9-4.6c0.1,1.2,0.1,2.8,0.1,4l0.1,6h-2.7v-14.1H142.7L142.7,144.5z"/>
	<path class="st1" d="M163.2,147.7c-0.9-0.8-1.9-1.1-2.9-1.1c-0.8,0-1.5,0.2-2,0.7c-1,0.9-1.2,2.4-1.2,4.5c0,2,0.3,3.3,1.1,4
		c0.5,0.5,1.3,0.8,2.2,0.8c0.6,0,1.1-0.1,1.6-0.3v-3.2h-2.2l-0.4-2.3h5.5v6.7c-1.4,0.9-3,1.3-4.7,1.3c-2.1,0-3.7-0.7-4.8-2.2
		c-1-1.3-1.5-2.8-1.5-4.9c0-3,1-5.1,2.9-6.4c1-0.7,2.1-1,3.4-1c1.7,0,3.2,0.5,4.5,1.6L163.2,147.7L163.2,147.7z"/>
	<path class="st1" d="M184.6,147.5c-1.3-0.8-2.2-1.1-3.3-1.1c-1.2,0-2,0.7-2,1.6c0,0.7,0.4,1.1,1.6,1.4l1.7,0.5
		c2.3,0.6,3.6,2.1,3.6,4.2c0,2.9-2.3,4.8-5.8,4.8c-1.6,0-3.4-0.5-4.8-1.3l1.1-2.2c1.3,0.7,2.5,1.1,3.9,1.1c1.6,0,2.5-0.7,2.5-1.9
		c0-0.9-0.6-1.5-1.8-1.8l-1.6-0.4c-1.4-0.4-2.3-0.9-2.8-1.8c-0.4-0.6-0.6-1.4-0.6-2.2c0-2.6,2.1-4.4,5.1-4.4c1.7,0,3.5,0.5,4.7,1.4
		L184.6,147.5L184.6,147.5z"/>
	<path class="st1" d="M198.4,147.2c-0.7-0.5-1.5-0.8-2.3-0.8c-1,0-1.9,0.5-2.4,1.2c-0.5,0.8-0.8,2-0.8,3.6c0,1.9,0.2,3,0.6,3.8
		c0.6,1,1.5,1.6,2.7,1.6c0.8,0,1.6-0.2,2.4-0.9l1.3,1.8c-1.1,0.9-2.3,1.3-3.9,1.3c-1.9,0-3.5-0.6-4.6-1.9c-1.1-1.3-1.7-3-1.7-5.1
		c0-1.8,0.3-3.2,1-4.4c1.1-2,3.1-3.3,5.4-3.3c1.4,0,2.8,0.4,3.6,1.1L198.4,147.2L198.4,147.2z"/>
	<polygon class="st1" points="206.8,144.5 206.8,158.6 203.9,158.6 203.9,144.5 206.8,144.5 	"/>
	<polygon class="st1" points="220.3,144.5 219.9,146.8 215.1,146.8 215.1,150.1 219.2,150.1 219.2,152.4 215.2,152.4 215.2,156.2 
		220.5,156.2 220.5,158.6 212.3,158.6 212.3,144.5 220.3,144.5 	"/>
	<path class="st1" d="M228.7,144.5l2.7,5.6c0.7,1.5,1.3,3,1.5,4c-0.1-1.1-0.2-2.9-0.2-3.9l-0.1-5.8h2.7v14.1h-3l-2.4-5.4
		c-0.8-1.8-1.6-3.8-1.9-4.6c0.1,1.2,0.1,2.8,0.1,4l0.1,6h-2.7v-14.1H228.7L228.7,144.5z"/>
	<path class="st1" d="M248.5,147.2c-0.7-0.5-1.5-0.8-2.3-0.8c-1,0-1.9,0.5-2.4,1.2c-0.5,0.8-0.8,2-0.8,3.6c0,1.9,0.2,3,0.6,3.8
		c0.6,1,1.5,1.6,2.7,1.6c0.8,0,1.6-0.2,2.4-0.9l1.3,1.8c-1.1,0.9-2.3,1.3-3.9,1.3c-2,0-3.5-0.6-4.6-1.9c-1.1-1.3-1.7-3-1.7-5.1
		c0-1.8,0.3-3.2,1-4.4c1.1-2,3.1-3.3,5.4-3.3c1.4,0,2.8,0.4,3.6,1.1L248.5,147.2L248.5,147.2z"/>
	<polygon class="st1" points="262,144.5 261.6,146.8 256.8,146.8 256.8,150.1 260.8,150.1 260.8,152.4 256.8,152.4 256.8,156.2 
		262.2,156.2 262.2,158.6 253.9,158.6 253.9,144.5 262,144.5 	"/>
</g>
</svg>
